# xmcd
#
# Track frame offsets:
#	150
#	7684
#	14744
#	22669
#	27000
#	34901
#	40908
#	47741
#	56702
#	65886
#	75718
#	81607
#	86301
#	95800
#	107079
#	119034
#	123198
#	131819
#	142971
#	155343
#	164102
#	173745
#	182787
#	191816
#	199793
#	213367
#	218177
#	224448
#	228604
#	237674
#	248752
#	256556
#	291387
#	301211
#	316504
#	325491
#	335066
#	346040
#
# Disc length: 4772 seconds
#
# Revision: 1
# Processed by: cddbd v1.5.1PL2 Copyright (c) Steve Scherf et al.
# Submitted via: audiograbber 1.83.01
#
DISCID=3212a226
DTITLE=Oppressed Logic - The Past Ain't Gonna Change
DYEAR=2003
DGENRE=Ethnic
TTITLE0=PC Full Of Shit
TTITLE1=Compressed Dogshit
TTITLE2=Little Girls
TTITLE3=What They Want What The Fuck
TTITLE4=Fuck Columbus
TTITLE5=My Life's A Fucking Mess
TTITLE6=Reality At Ten O'Clock
TTITLE7=Ain't A Damn Thing Changed
TTITLE8=Not My American Dream
TTITLE9=Cruisers
TTITLE10=Tension
TTITLE11=Eighty Sixed
TTITLE12=Get A Clue
TTITLE13=Old School Days
TTITLE14=Little Girls (Part 2)
TTITLE15=On The Hunt
TTITLE16=Unnatural Acts
TTITLE17=Found In A Ditch
TTITLE18=They're Gonna Die
TTITLE19=Sometimes
TTITLE20=Jose Cuervo
TTITLE21=Billions For Destruction
TTITLE22=Down On Your Luck
TTITLE23=Winos
TTITLE24=Cheap Beer Hangover
TTITLE25=We Race For Beer
TTITLE26=Punk Is Bunk
TTITLE27=Who's The Banned
TTITLE28=Fuck What You Heard
TTITLE29=Price For Freedom
TTITLE30=Bloodstains
TTITLE31=Hangin'On Telegraph
TTITLE32=PC Full Of Shit (Live)
TTITLE33=Little Girls (Part 3) (Live)
TTITLE34=You Hate Me And I Hate You (Live)
TTITLE35=Ain't A Damn Thing Changed (Live)
TTITLE36=You're Doing It Wrong (Live)
TTITLE37=This Is Reality (Live)
EXTD=
EXTT0=
EXTT1=
EXTT2=
EXTT3=
EXTT4=
EXTT5=
EXTT6=
EXTT7=
EXTT8=
EXTT9=
EXTT10=
EXTT11=
EXTT12=
EXTT13=
EXTT14=
EXTT15=
EXTT16=
EXTT17=
EXTT18=
EXTT19=
EXTT20=
EXTT21=
EXTT22=
EXTT23=
EXTT24=
EXTT25=
EXTT26=
EXTT27=
EXTT28=
EXTT29=
EXTT30=
EXTT31=
EXTT32=
EXTT33=
EXTT34=
EXTT35=
EXTT36=
EXTT37=
PLAYORDER=
